HIERARCHY
ROOT hip
{
  OFFSET 0.0 0.0 0.0
  CHANNELS 6 Xposition Yposition Zposition Zrotation Yrotation Xrotation
  JOINT abdomen
  {
    OFFSET 0.0 20.6881 -0.73152
    CHANNELS 3 Zrotation Xrotation Yrotation
    JOINT chest
    {
      OFFSET 0.0 11.7043 -0.48768
      CHANNELS 3 Zrotation Xrotation Yrotation
      JOINT neck
      {
        OFFSET 0.0 22.1894 -2.19456
        CHANNELS 3 Zrotation Xrotation Yrotation
        JOINT head
        {
          OFFSET -0.24384 7.07133 1.2192
          CHANNELS 3 Zrotation Xrotation Yrotation
          JOINT leftEye
          {
            OFFSET 4.14528 8.04674 8.04672
            CHANNELS 3 Zrotation Xrotation Yrotation
            End Site
            {
              OFFSET 1.0 0.0 0.0
            }
          }
          JOINT rightEye
          {
            OFFSET -3.6576 8.04674 8.04672
            CHANNELS 3 Zrotation Xrotation Yrotation
            End Site
            {
              OFFSET 1.0 0.0 0.0
            }
          }
        }
      }
      JOINT rCollar
      {
        OFFSET -2.68224 19.2634 -4.8768
        CHANNELS 3 Zrotation Xrotation Yrotation
        JOINT rShldr
        {
          OFFSET -8.77824 -1.95073 1.46304
          CHANNELS 3 Zrotation Xrotation Yrotation
          JOINT rForeArm
          {
            OFFSET -28.1742 -1.7115 0.48768
            CHANNELS 3 Zrotation Xrotation Yrotation
            JOINT rHand
            {
              OFFSET -22.5879 0.773209 7.07136
              CHANNELS 3 Zrotation Xrotation Yrotation
              JOINT rThumb1
              {
                OFFSET -1.2192 -0.487915 3.41376
                CHANNELS 3 Zrotation Xrotation Yrotation
                JOINT rThumb2
                {
                  OFFSET -3.37035 -0.52449 3.41376
                  CHANNELS 3 Zrotation Xrotation Yrotation
                  End Site
                  {
                    OFFSET -1.78271 -1.18214 1.43049
                  }
                }
              }
              JOINT rIndex1
              {
                OFFSET -7.75947 0.938293 5.60832
                CHANNELS 3 Zrotation Xrotation Yrotation
                JOINT rIndex2
                {
                  OFFSET -2.54057 -0.884171 1.56538
                  CHANNELS 3 Zrotation Xrotation Yrotation
                  End Site
                  {
                    OFFSET -1.62519 -0.234802 1.16502
                  }
                }
              }
              JOINT rMid1
              {
                OFFSET -8.24714 1.18213 3.41376
                CHANNELS 3 Zrotation Xrotation Yrotation
                JOINT rMid2
                {
                  OFFSET -3.10165 -0.590103 1.0647
                  CHANNELS 3 Zrotation Xrotation Yrotation
                  End Site
                  {
                    OFFSET -2.48547 -0.328903 0.83742
                  }
                }
              }
              JOINT rRing1
              {
                OFFSET -8.82822 0.546677 1.51678
                CHANNELS 3 Zrotation Xrotation Yrotation
                JOINT rRing2
                {
                  OFFSET -2.60934 -0.819778 -0.0198488
                  CHANNELS 3 Zrotation Xrotation Yrotation
                  End Site
                  {
                    OFFSET -2.33842 -0.294052 0.168128
                  }
                }
              }
              JOINT rPinky1
              {
                OFFSET -8.27202 -0.0477905 -0.4584
                CHANNELS 3 Zrotation Xrotation Yrotation
                JOINT rPinky2
                {
                  OFFSET -1.82734 -0.647385 -0.700984
                  CHANNELS 3 Zrotation Xrotation Yrotation
                  End Site
                  {
                    OFFSET -1.69225 -0.51767 -0.607171
                  }
                }
              }
            }
          }
        }
      }
      JOINT lCollar
      {
        OFFSET 2.68224 19.2634 -4.8768
        CHANNELS 3 Zrotation Xrotation Yrotation
        JOINT lShldr
        {
          OFFSET 8.77824 -1.95073 1.46304
          CHANNELS 3 Zrotation Xrotation Yrotation
          JOINT lForeArm
          {
            OFFSET 28.1742 -1.7115 0.48768
            CHANNELS 3 Zrotation Xrotation Yrotation
            JOINT lHand
            {
              OFFSET 22.5879 0.773209 7.07136
              CHANNELS 3 Zrotation Xrotation Yrotation
              JOINT lThumb1
              {
                OFFSET 1.2192 -0.487915 3.41376
                CHANNELS 3 Zrotation Xrotation Yrotation
                JOINT lThumb2
                {
                  OFFSET 3.37035 -0.52449 3.41376
                  CHANNELS 3 Zrotation Xrotation Yrotation
                  End Site
                  {
                    OFFSET 1.78271 -1.18214 1.43049
                  }
                }
              }
              JOINT lIndex1
              {
                OFFSET 7.75947 0.938293 5.60832
                CHANNELS 3 Zrotation Xrotation Yrotation
                JOINT lIndex2
                {
                  OFFSET 2.54057 -0.884171 1.56538
                  CHANNELS 3 Zrotation Xrotation Yrotation
                  End Site
                  {
                    OFFSET 1.62519 -0.234802 1.16502
                  }
                }
              }
              JOINT lMid1
              {
                OFFSET 8.24714 1.18213 3.41376
                CHANNELS 3 Zrotation Xrotation Yrotation
                JOINT lMid2
                {
                  OFFSET 3.10165 -0.590103 1.0647
                  CHANNELS 3 Zrotation Xrotation Yrotation
                  End Site
                  {
                    OFFSET 2.48547 -0.328903 0.83742
                  }
                }
              }
              JOINT lRing1
              {
                OFFSET 8.82822 0.546677 1.51678
                CHANNELS 3 Zrotation Xrotation Yrotation
                JOINT lRing2
                {
                  OFFSET 2.60934 -0.819778 -0.0198488
                  CHANNELS 3 Zrotation Xrotation Yrotation
                  End Site
                  {
                    OFFSET 2.33842 -0.294052 0.168128
                  }
                }
              }
              JOINT lPinky1
              {
                OFFSET 8.27202 -0.0477905 -0.4584
                CHANNELS 3 Zrotation Xrotation Yrotation
                JOINT lPinky2
                {
                  OFFSET 1.82734 -0.647385 -0.700984
                  CHANNELS 3 Zrotation Xrotation Yrotation
                  End Site
                  {
                    OFFSET 1.69225 -0.51767 -0.607171
                  }
                }
              }
            }
          }
        }
      }
    }
  }
  JOINT rButtock
  {
    OFFSET -8.77824 4.35084 1.2192
    CHANNELS 3 Zrotation Xrotation Yrotation
    JOINT rThigh
    {
      OFFSET 0.0 -1.70687 -2.19456
      CHANNELS 3 Zrotation Xrotation Yrotation
      JOINT rShin
      {
        OFFSET 0.0 -36.8199 0.73152
        CHANNELS 3 Zrotation Xrotation Yrotation
        JOINT rFoot
        {
          OFFSET 0.73152 -45.1104 -5.12064
          CHANNELS 3 Zrotation Xrotation Yrotation
          End Site
          {
            OFFSET -1.1221 -3.69964 12.103
          }
        }
      }
    }
  }
  JOINT lButtock
  {
    OFFSET 8.77824 4.35084 1.2192
    CHANNELS 3 Zrotation Xrotation Yrotation
    JOINT lThigh
    {
      OFFSET 0.0 -1.70687 -2.19456
      CHANNELS 3 Zrotation Xrotation Yrotation
      JOINT lShin
      {
        OFFSET 0.0 -36.8199 0.73152
        CHANNELS 3 Zrotation Xrotation Yrotation
        JOINT lFoot
        {
          OFFSET -0.73152 -45.1104 -5.12064
          CHANNELS 3 Zrotation Xrotation Yrotation
          End Site
          {
            OFFSET 1.1221 -3.69964 12.103
          }
        }
      }
    }
  }
}
MOTION
Frames: 4
Frame Time: 0.00833333
160.672 86.5079 -40.1697 354.522 -70.7229 1467.2 -4.77512 12.7268 -1.49248 -0.102377 -4.00146 -1.08641 -6.92442 5.4694 -8.13507 16.6411 -25.3756 -11.6086 -0.0 0.0 0.0 -0.0 0.0 0.0 -3.00454e-14 3.29991e-13 1.46249e-13 65.7008 22.6254 -28.2712 -24.3842 -19.833 50.8514 -0.0225807 -4.32134 -0.608462 -1.44546e-09 -1.39752e-09 1.13575e-09 -2.50848e-09 -2.42337e-09 1.95811e-09 -1.44547e-09 -1.39752e-09 1.13573e-09 7.73091 5.47488 0.417314 -1.44546e-09 -1.39752e-09 1.13575e-09 2.90554 0.965183 0.102902 -1.44545e-09 -1.39752e-09 1.13575e-09 10.2786 0.731801 0.0259123 -1.44546e-09 -1.39752e-09 1.13575e-09 2.22167 -0.733487 -0.20892 -3.01885e-14 3.30023e-13 1.45995e-13 -47.8634 -8.85068 -9.34146 27.2728 -43.2236 -89.9389 1.73192 -34.5797 5.5596 -1.35433e-09 -5.03429e-11 -1.06972e-09 -2.32049e-09 -9.09651e-11 -1.86586e-09 -1.35433e-09 -5.03438e-11 -1.06971e-09 -7.73091 5.47488 -0.417314 -1.35433e-09 -5.034e-11 -1.06972e-09 -2.90554 0.965183 -0.102902 -1.35433e-09 -5.03385e-11 -1.06972e-09 -10.2786 0.731801 -0.0259123 -1.35433e-09 -5.03375e-11 -1.06973e-09 -2.22167 -0.733487 0.20892 -2.03217e-16 0.0 -3.88251e-19 6.11171 -34.1918 12.6099 -176.351 64.6125 176.537 -1.0213 8.71136 -13.4827 2.03217e-16 0.0 3.88251e-19 -1.32812 -26.666 19.6918 0.165429 26.2889 1.26865 1.32009 -3.61233 8.85413
160.018 86.3739 -40.0124 356.129 -69.3194 1465.32 -3.9303 14.9466 -2.33066 0.196012 -3.99515 -1.25742 -7.11768 5.47731 -8.28954 16.7763 -26.2852 -11.753 -0.0 0.0 0.0 -0.0 0.0 0.0 -3.36271e-13 3.33898e-13 4.42479e-13 64.1072 23.2393 -26.8577 -24.5942 -20.2501 51.5737 -0.0280214 -4.80647 -0.677087 -8.92113e-10 -1.82552e-11 1.8005e-09 -1.55799e-09 -4.92925e-11 3.11253e-09 -8.92119e-10 -1.82563e-11 1.80048e-09 7.73091 5.47488 0.417314 -8.92122e-10 -1.82576e-11 1.8005e-09 2.90554 0.965183 0.102902 -8.92107e-10 -1.82532e-11 1.8005e-09 10.2786 0.731801 0.0259123 -8.92116e-10 -1.82523e-11 1.8005e-09 2.22167 -0.733487 -0.20892 -3.36439e-13 3.33918e-13 4.42228e-13 -46.2248 -7.31407 -13.1201 27.2158 -43.3934 -90.2702 1.74355 -34.6782 5.58011 -4.30565e-09 4.61064e-10 -2.95285e-09 -7.36667e-09 7.01584e-10 -5.19802e-09 -4.30565e-09 4.61066e-10 -2.95285e-09 -7.73091 5.47488 -0.417314 -4.30565e-09 4.61069e-10 -2.95285e-09 -2.90554 0.965183 -0.102902 -4.30565e-09 4.6107e-10 -2.95285e-09 -10.2786 0.731801 -0.0259123 -4.30565e-09 4.6107e-10 -2.95286e-09 -2.22167 -0.733487 0.20892 -2.03217e-16 0.0 -3.88251e-19 5.50313 -36.0889 12.5847 -176.011 67.87 176.203 -1.63227 5.29436 -13.0932 2.03217e-16 0.0 3.88251e-19 -2.29469 -26.4925 17.6776 0.132896 26.885 1.04384 1.41745 -3.46888 10.4146
159.374 86.2921 -39.8633 357.469 -68.0704 1463.81 -2.96593 17.1408 -3.10305 0.52768 -3.9533 -1.3964 -7.33967 5.4898 -8.44192 16.8896 -27.2904 -11.8898 -0.0 0.0 0.0 -0.0 0.0 0.0 -6.24606e-13 3.16659e-13 7.1157e-13 62.3746 23.8412 -25.4518 -24.8255 -20.7251 52.372 -0.034995 -5.34313 -0.753131 -2.82926e-10 1.34579e-09 2.34349e-09 -5.09956e-10 2.29945e-09 4.05664e-09 -2.82927e-10 1.34579e-09 2.34348e-09 7.73091 5.47488 0.417314 -2.82938e-10 1.34579e-09 2.34349e-09 2.90554 0.965183 0.102902 -2.8292e-10 1.34579e-09 2.34349e-09 10.2786 0.731801 0.0259123 -2.82929e-10 1.34579e-09 2.34349e-09 2.22167 -0.733487 -0.20892 -6.24797e-13 3.16667e-13 7.11323e-13 -44.2054 -5.99197 -16.5586 27.167 -43.5445 -90.555 1.76238 -34.8368 5.61324 -6.95555e-09 9.53855e-10 -4.63112e-09 -1.18969e-08 1.47146e-09 -8.16977e-09 -6.95555e-09 9.5386e-10 -4.63112e-09 -7.73091 5.47488 -0.417314 -6.95555e-09 9.53862e-10 -4.63113e-09 -2.90554 0.965183 -0.102902 -6.95555e-09 9.53862e-10 -4.63112e-09 -10.2786 0.731801 -0.0259123 -6.95554e-09 9.53862e-10 -4.63113e-09 -2.22167 -0.733487 0.20892 -2.03217e-16 0.0 -3.88251e-19 4.96011 -38.0259 12.5987 -175.481 71.4884 175.685 -2.14937 2.02754 -12.6736 2.03217e-16 0.0 3.88251e-19 -3.2425 -26.3963 15.5739 0.105743 27.5253 0.811753 1.54027 -3.26466 12.2699
158.739 86.2578 -39.7191 358.666 -67.0422 1462.6 -1.98766 19.1182 -3.73374 0.887182 -3.86354 -1.4854 -7.54382 5.54187 -8.56674 16.8703 -28.2629 -12.0181 -0.0 0.0 0.0 -0.0 0.0 0.0 -7.6803e-13 1.90833e-13 8.14421e-13 60.5563 24.2727 -24.1434 -25.0907 -21.2919 53.2723 -0.0424475 -5.87001 -0.827903 1.84334e-10 2.10082e-09 2.60529e-09 2.95681e-10 3.60006e-09 4.51217e-09 1.84337e-10 2.10082e-09 2.60529e-09 7.73091 5.47488 0.417314 1.8432e-10 2.10081e-09 2.6053e-09 2.90554 0.965183 0.102902 1.84339e-10 2.10082e-09 2.60529e-09 10.2786 0.731801 0.0259123 1.84329e-10 2.10083e-09 2.6053e-09 2.22167 -0.733487 -0.20892 -7.68228e-13 1.90832e-13 8.14172e-13 -41.9345 -5.06831 -19.3967 27.1089 -43.7169 -90.8847 1.78015 -34.9851 5.64435 -8.13163e-09 1.18309e-09 -5.42154e-09 -1.39054e-08 1.8277e-09 -9.56884e-09 -8.13164e-09 1.1831e-09 -5.42154e-09 -7.73091 5.47488 -0.417314 -8.13164e-09 1.1831e-09 -5.42155e-09 -2.90554 0.965183 -0.102902 -8.13164e-09 1.1831e-09 -5.42154e-09 -10.2786 0.731801 -0.0259123 -8.13163e-09 1.1831e-09 -5.42155e-09 -2.22167 -0.733487 0.20892 -2.03217e-16 0.0 -3.88251e-19 4.55022 -39.947 12.89 -174.567 75.4608 174.796 -2.64638 -1.18367 -12.3358 2.03217e-16 0.0 3.88251e-19 -4.02405 -26.3995 13.99 0.086002 28.1456 0.587054 1.64114 -3.01659 13.8872
